<svg width="36" height="37" viewBox="0 0 36 37" fill="none" xmlns="http://www.w3.org/2000/svg">
<path d="M8.25 33.5C7.65 33.5 7.125 33.275 6.675 32.825C6.225 32.375 6 31.85 6 31.25V11.75C6 11.15 6.225 10.625 6.675 10.175C7.125 9.725 7.65 9.5 8.25 9.5H12.375V9.125C12.375 7.55 12.9187 6.21875 14.0062 5.13125C15.0937 4.04375 16.425 3.5 18 3.5C19.575 3.5 20.9063 4.04375 21.9938 5.13125C23.0813 6.21875 23.625 7.55 23.625 9.125V9.5H27.75C28.35 9.5 28.875 9.725 29.325 10.175C29.775 10.625 30 11.15 30 11.75V31.25C30 31.85 29.775 32.375 29.325 32.825C28.875 33.275 28.35 33.5 27.75 33.5H8.25ZM8.25 31.25H27.75V11.75H23.625V15.125C23.625 15.45 23.5188 15.7188 23.3063 15.9313C23.0938 16.1438 22.825 16.25 22.5 16.25C22.175 16.25 21.9062 16.1438 21.6937 15.9313C21.4812 15.7188 21.375 15.45 21.375 15.125V11.75H14.625V15.125C14.625 15.45 14.5188 15.7188 14.3063 15.9313C14.0938 16.1438 13.825 16.25 13.5 16.25C13.175 16.25 12.9062 16.1438 12.6937 15.9313C12.4812 15.7188 12.375 15.45 12.375 15.125V11.75H8.25V31.25ZM14.625 9.5H21.375V9.125C21.375 8.175 21.05 7.375 20.4 6.725C19.75 6.075 18.95 5.75 18 5.75C17.05 5.75 16.25 6.075 15.6 6.725C14.95 7.375 14.625 8.175 14.625 9.125V9.5ZM8.25 31.25V11.75V31.25Z" fill="#292929"/>
<circle cx="26" cy="12" r="6" fill="#018776"/>
</svg>
